<mxfile host="65bd71144e">
    <diagram id="-AGe_s0diFOMlo3Oylx-" name="Page-1">
        <mxGraphModel dx="990" dy="567" grid="0" gridSize="10" guides="1" tooltips="1" connect="1" arrows="1" fold="1" page="1" pageScale="1" pageWidth="1169" pageHeight="827" background="#4D4D4D" math="0" shadow="0">
            <root>
                <mxCell id="0"/>
                <mxCell id="1" parent="0"/>
                <mxCell id="4" value="&lt;font style=&quot;font-size: 14px&quot;&gt;&lt;b&gt;UI&lt;/b&gt;&lt;/font&gt;" style="text;html=1;strokeColor=none;fillColor=none;align=center;verticalAlign=middle;whiteSpace=wrap;rounded=0;" parent="1" vertex="1">
                    <mxGeometry x="20" y="100" width="50" height="30" as="geometry"/>
                </mxCell>
                <mxCell id="5" value="Application" style="text;html=1;strokeColor=none;fillColor=none;align=center;verticalAlign=middle;whiteSpace=wrap;rounded=0;fontStyle=1;fontSize=14;" parent="1" vertex="1">
                    <mxGeometry x="20" y="240" width="50" height="30" as="geometry"/>
                </mxCell>
                <mxCell id="10" value="Functions" style="text;html=1;strokeColor=none;fillColor=none;align=center;verticalAlign=middle;whiteSpace=wrap;rounded=0;fontSize=14;fontStyle=1" parent="1" vertex="1">
                    <mxGeometry x="20" y="377.5" width="50" height="30" as="geometry"/>
                </mxCell>
                <mxCell id="38" value="Index.cs" style="swimlane;startSize=0;dashed=0;strokeColor=#330033;fillColor=#990099;gradientColor=#660066;html=1;strokeWidth=2;" vertex="1" parent="1">
                    <mxGeometry x="130" y="170" width="260" height="170" as="geometry"/>
                </mxCell>
                <mxCell id="37" value="Addition&lt;br&gt;or&lt;br&gt;Subtraction&lt;br&gt;?" style="rhombus;whiteSpace=wrap;html=1;dashed=0;strokeColor=#330033;fillColor=#990099;gradientColor=#660066;" vertex="1" parent="38">
                    <mxGeometry x="10" y="20" width="110" height="90" as="geometry"/>
                </mxCell>
                <mxCell id="44" value="CreateRequest()" style="rounded=0;whiteSpace=wrap;html=1;dashed=0;strokeColor=#29073B;strokeWidth=1;fillColor=#990099;gradientColor=#660066;" vertex="1" parent="38">
                    <mxGeometry x="10" y="130" width="110" height="25" as="geometry"/>
                </mxCell>
                <mxCell id="45" value="CreateResult()" style="rounded=0;whiteSpace=wrap;html=1;dashed=0;strokeColor=#29073B;strokeWidth=1;fillColor=#990099;gradientColor=#660066;" vertex="1" parent="38">
                    <mxGeometry x="150" y="130" width="100" height="25" as="geometry"/>
                </mxCell>
                <mxCell id="76" value="" style="endArrow=classic;html=1;strokeColor=#330033;strokeWidth=3;exitX=0.185;exitY=0.685;exitDx=0;exitDy=0;exitPerimeter=0;entryX=0.185;entryY=-0.093;entryDx=0;entryDy=0;entryPerimeter=0;" edge="1" parent="38" source="37" target="44">
                    <mxGeometry width="50" height="50" relative="1" as="geometry">
                        <mxPoint x="40.57000000000005" y="164.67499999999995" as="sourcePoint"/>
                        <mxPoint x="40.01999999999998" y="219.67499999999995" as="targetPoint"/>
                    </mxGeometry>
                </mxCell>
                <mxCell id="77" value="" style="endArrow=classic;html=1;strokeColor=#330033;strokeWidth=3;exitX=0.914;exitY=0.604;exitDx=0;exitDy=0;exitPerimeter=0;entryX=0.912;entryY=-0.007;entryDx=0;entryDy=0;entryPerimeter=0;" edge="1" parent="38" source="37" target="44">
                    <mxGeometry width="50" height="50" relative="1" as="geometry">
                        <mxPoint x="112" y="80" as="sourcePoint"/>
                        <mxPoint x="112" y="120" as="targetPoint"/>
                    </mxGeometry>
                </mxCell>
                <mxCell id="41" value="Addition" style="rounded=0;whiteSpace=wrap;html=1;dashed=0;strokeColor=#29073B;strokeWidth=1;fillColor=#990099;gradientColor=#660066;" vertex="1" parent="1">
                    <mxGeometry x="140" y="380" width="70" height="25" as="geometry"/>
                </mxCell>
                <mxCell id="42" value="Subtraction" style="rounded=0;whiteSpace=wrap;html=1;dashed=0;strokeColor=#29073B;strokeWidth=1;fillColor=#990099;gradientColor=#660066;" vertex="1" parent="1">
                    <mxGeometry x="225" y="380" width="70" height="25" as="geometry"/>
                </mxCell>
                <mxCell id="52" value="ResultService" style="swimlane;startSize=0;dashed=0;strokeWidth=2;fillColor=#990099;gradientColor=#660066;html=1;strokeColor=#330033;" vertex="1" parent="1">
                    <mxGeometry x="430" y="270" width="220" height="70" as="geometry"/>
                </mxCell>
                <mxCell id="53" value="Get()" style="rounded=0;whiteSpace=wrap;html=1;strokeColor=#330033;fillColor=#990099;gradientColor=#660066;align=center;" vertex="1" parent="52">
                    <mxGeometry x="20" y="20" width="80" height="30" as="geometry"/>
                </mxCell>
                <mxCell id="54" value="Create()" style="rounded=0;whiteSpace=wrap;html=1;strokeColor=#330033;fillColor=#990099;gradientColor=#660066;align=center;" vertex="1" parent="52">
                    <mxGeometry x="120" y="20" width="80" height="30" as="geometry"/>
                </mxCell>
                <mxCell id="56" value="MongoDB" style="text;html=1;strokeColor=none;fillColor=none;align=center;verticalAlign=middle;whiteSpace=wrap;rounded=0;fontSize=14;fontStyle=1" vertex="1" parent="1">
                    <mxGeometry x="20" y="440" width="50" height="30" as="geometry"/>
                </mxCell>
                <mxCell id="57" value="EpiCalcDb" style="shape=cylinder3;whiteSpace=wrap;html=1;boundedLbl=1;backgroundOutline=1;size=9.4000244140625;dashed=0;strokeColor=#29073B;strokeWidth=2;fillColor=#990099;gradientColor=#660066;" vertex="1" parent="1">
                    <mxGeometry x="450" y="440" width="180" height="60" as="geometry"/>
                </mxCell>
                <mxCell id="58" value="" style="endArrow=classic;html=1;strokeWidth=3;exitX=0.5;exitY=1;exitDx=0;exitDy=0;entryX=0.5;entryY=0;entryDx=0;entryDy=0;strokeColor=#330033;" edge="1" parent="1" source="39" target="37">
                    <mxGeometry width="50" height="50" relative="1" as="geometry">
                        <mxPoint x="460" y="320" as="sourcePoint"/>
                        <mxPoint x="173" y="160" as="targetPoint"/>
                    </mxGeometry>
                </mxCell>
                <mxCell id="59" value="" style="endArrow=classic;html=1;strokeColor=#330033;strokeWidth=3;exitX=0.187;exitY=0.987;exitDx=0;exitDy=0;exitPerimeter=0;entryX=0.286;entryY=-0.013;entryDx=0;entryDy=0;entryPerimeter=0;" edge="1" parent="1" source="44" target="41">
                    <mxGeometry width="50" height="50" relative="1" as="geometry">
                        <mxPoint x="300" y="310" as="sourcePoint"/>
                        <mxPoint x="350" y="260" as="targetPoint"/>
                    </mxGeometry>
                </mxCell>
                <mxCell id="60" value="" style="endArrow=classic;html=1;strokeColor=#330033;strokeWidth=3;entryX=0.218;entryY=-0.027;entryDx=0;entryDy=0;entryPerimeter=0;exitX=0.907;exitY=1.016;exitDx=0;exitDy=0;exitPerimeter=0;" edge="1" parent="1" source="44" target="42">
                    <mxGeometry width="50" height="50" relative="1" as="geometry">
                        <mxPoint x="240" y="330" as="sourcePoint"/>
                        <mxPoint x="243" y="370" as="targetPoint"/>
                    </mxGeometry>
                </mxCell>
                <mxCell id="61" value="" style="endArrow=classic;html=1;strokeColor=#330033;strokeWidth=3;exitX=0.862;exitY=-0.009;exitDx=0;exitDy=0;exitPerimeter=0;entryX=0.268;entryY=1.016;entryDx=0;entryDy=0;entryPerimeter=0;" edge="1" parent="1" source="41" target="38">
                    <mxGeometry width="50" height="50" relative="1" as="geometry">
                        <mxPoint x="170.56999999999994" y="334.67499999999995" as="sourcePoint"/>
                        <mxPoint x="200" y="350" as="targetPoint"/>
                    </mxGeometry>
                </mxCell>
                <mxCell id="62" value="" style="endArrow=classic;html=1;strokeColor=#330033;strokeWidth=3;exitX=0.862;exitY=-0.009;exitDx=0;exitDy=0;exitPerimeter=0;entryX=0.268;entryY=1.016;entryDx=0;entryDy=0;entryPerimeter=0;" edge="1" parent="1">
                    <mxGeometry width="50" height="50" relative="1" as="geometry">
                        <mxPoint x="280.65999999999997" y="379.995" as="sourcePoint"/>
                        <mxPoint x="279.99999999999994" y="342.94000000000005" as="targetPoint"/>
                    </mxGeometry>
                </mxCell>
                <mxCell id="63" value="" style="endArrow=classic;html=1;strokeColor=#330033;strokeWidth=3;entryX=-0.01;entryY=0.603;entryDx=0;entryDy=0;entryPerimeter=0;exitX=1.007;exitY=0.88;exitDx=0;exitDy=0;exitPerimeter=0;" edge="1" parent="1" source="38" target="46">
                    <mxGeometry width="50" height="50" relative="1" as="geometry">
                        <mxPoint x="410" y="370" as="sourcePoint"/>
                        <mxPoint x="430" y="300" as="targetPoint"/>
                        <Array as="points">
                            <mxPoint x="410" y="319"/>
                            <mxPoint x="410" y="212"/>
                        </Array>
                    </mxGeometry>
                </mxCell>
                <mxCell id="64" value="" style="endArrow=classic;html=1;strokeColor=#330033;strokeWidth=3;exitX=0.5;exitY=1;exitDx=0;exitDy=0;entryX=0.5;entryY=0;entryDx=0;entryDy=0;startArrow=classic;startFill=1;" edge="1" parent="1" source="47" target="53">
                    <mxGeometry width="50" height="50" relative="1" as="geometry">
                        <mxPoint x="360" y="330" as="sourcePoint"/>
                        <mxPoint x="410" y="280" as="targetPoint"/>
                    </mxGeometry>
                </mxCell>
                <mxCell id="65" value="" style="endArrow=classic;html=1;strokeColor=#330033;strokeWidth=3;exitX=0.5;exitY=1;exitDx=0;exitDy=0;entryX=0.22;entryY=-0.006;entryDx=0;entryDy=0;startArrow=classic;startFill=1;entryPerimeter=0;" edge="1" parent="1" source="53" target="57">
                    <mxGeometry width="50" height="50" relative="1" as="geometry">
                        <mxPoint x="489.58" y="340" as="sourcePoint"/>
                        <mxPoint x="489.58" y="410" as="targetPoint"/>
                    </mxGeometry>
                </mxCell>
                <mxCell id="66" value="" style="endArrow=classic;html=1;strokeColor=#330033;strokeWidth=3;exitX=0.5;exitY=1;exitDx=0;exitDy=0;entryX=0.783;entryY=0.017;entryDx=0;entryDy=0;startArrow=classic;startFill=1;entryPerimeter=0;" edge="1" parent="1" source="54" target="57">
                    <mxGeometry width="50" height="50" relative="1" as="geometry">
                        <mxPoint x="500" y="330" as="sourcePoint"/>
                        <mxPoint x="499.60000000000014" y="449.64" as="targetPoint"/>
                    </mxGeometry>
                </mxCell>
                <mxCell id="67" value="" style="endArrow=classic;html=1;strokeColor=#330033;strokeWidth=3;exitX=0.5;exitY=1;exitDx=0;exitDy=0;startArrow=classic;startFill=1;" edge="1" parent="1" source="48">
                    <mxGeometry width="50" height="50" relative="1" as="geometry">
                        <mxPoint x="600" y="330" as="sourcePoint"/>
                        <mxPoint x="590" y="290" as="targetPoint"/>
                    </mxGeometry>
                </mxCell>
                <mxCell id="68" value="Index.html" style="swimlane;startSize=0;dashed=0;strokeColor=#330033;strokeWidth=2;fillColor=#990099;gradientColor=#660066;html=1;" vertex="1" parent="1">
                    <mxGeometry x="130" y="80" width="260" height="70" as="geometry"/>
                </mxCell>
                <mxCell id="39" value="&lt;br&gt;Input form" style="html=1;strokeWidth=1;shape=manualInput;whiteSpace=wrap;rounded=1;size=26;arcSize=11;dashed=0;fillColor=#990099;gradientColor=#660066;strokeColor=#29073B;" vertex="1" parent="68">
                    <mxGeometry x="15" y="10" width="100" height="50" as="geometry"/>
                </mxCell>
                <mxCell id="70" value="Results.html" style="swimlane;startSize=0;dashed=0;strokeColor=#330033;strokeWidth=2;fillColor=#990099;gradientColor=#660066;html=1;" vertex="1" parent="1">
                    <mxGeometry x="430" y="80" width="220" height="70" as="geometry"/>
                </mxCell>
                <mxCell id="72" value="Previous&lt;br&gt;results" style="ellipse;whiteSpace=wrap;html=1;dashed=0;strokeColor=#330033;strokeWidth=2;fillColor=#990099;gradientColor=#660066;" vertex="1" parent="70">
                    <mxGeometry x="20" y="15" width="80" height="40" as="geometry"/>
                </mxCell>
                <mxCell id="73" value="New result" style="ellipse;whiteSpace=wrap;html=1;dashed=0;strokeColor=#330033;strokeWidth=2;fillColor=#990099;gradientColor=#660066;" vertex="1" parent="70">
                    <mxGeometry x="120" y="15" width="80" height="40" as="geometry"/>
                </mxCell>
                <mxCell id="74" value="" style="endArrow=classic;html=1;strokeColor=#330033;strokeWidth=3;exitX=0.5;exitY=0;exitDx=0;exitDy=0;entryX=0.5;entryY=1;entryDx=0;entryDy=0;" edge="1" parent="1" source="47" target="72">
                    <mxGeometry width="50" height="50" relative="1" as="geometry">
                        <mxPoint x="290.65999999999985" y="389.995" as="sourcePoint"/>
                        <mxPoint x="290" y="352.94000000000005" as="targetPoint"/>
                    </mxGeometry>
                </mxCell>
                <mxCell id="75" value="" style="endArrow=classic;html=1;strokeColor=#330033;strokeWidth=3;exitX=0.5;exitY=0;exitDx=0;exitDy=0;entryX=0.5;entryY=1;entryDx=0;entryDy=0;" edge="1" parent="1" source="48" target="73">
                    <mxGeometry width="50" height="50" relative="1" as="geometry">
                        <mxPoint x="500" y="200" as="sourcePoint"/>
                        <mxPoint x="500" y="145" as="targetPoint"/>
                    </mxGeometry>
                </mxCell>
                <mxCell id="46" value="Results.cs" style="swimlane;startSize=0;dashed=0;strokeWidth=2;fillColor=#990099;gradientColor=#660066;html=1;strokeColor=#330033;" vertex="1" parent="1">
                    <mxGeometry x="430" y="170" width="220" height="70" as="geometry">
                        <mxRectangle x="380" y="170" width="140" height="20" as="alternateBounds"/>
                    </mxGeometry>
                </mxCell>
                <mxCell id="47" value="GetTopTen()" style="rounded=0;whiteSpace=wrap;html=1;strokeColor=#330033;fillColor=#990099;gradientColor=#660066;align=center;" vertex="1" parent="46">
                    <mxGeometry x="20" y="20" width="80" height="30" as="geometry"/>
                </mxCell>
                <mxCell id="48" value="AddResult()" style="rounded=0;whiteSpace=wrap;html=1;strokeColor=#330033;fillColor=#990099;gradientColor=#660066;align=center;" vertex="1" parent="46">
                    <mxGeometry x="120" y="20" width="80" height="30" as="geometry"/>
                </mxCell>
            </root>
        </mxGraphModel>
    </diagram>
</mxfile>